<svg width="69" height="69" viewBox="0 0 69 69" fill="none" xmlns="http://www.w3.org/2000/svg">
<rect width="69" height="69" rx="16" fill="#24BEEF"/>
<path d="M37.9163 14.4167H28.2497C27.6087 14.4167 26.994 14.6714 26.5408 15.1246C26.0876 15.5778 25.833 16.1925 25.833 16.8334V36.1667C25.833 36.8077 26.0876 37.4224 26.5408 37.8756C26.994 38.3288 27.6087 38.5834 28.2497 38.5834H42.7497C43.3906 38.5834 44.0053 38.3288 44.4585 37.8756C44.9117 37.4224 45.1663 36.8077 45.1663 36.1667V21.6667L37.9163 14.4167Z" stroke="white" stroke-width="1.5" stroke-linecap="round" stroke-linejoin="round"/>
<path d="M37.917 14.4167V21.6667H45.167" stroke="white" stroke-width="1.5" stroke-linecap="round" stroke-linejoin="round"/>
<path d="M31.875 26H39.125" stroke="white" stroke-width="1.5" stroke-linecap="round" stroke-linejoin="round"/>
<path d="M31.875 29H39.125" stroke="white" stroke-width="1.5" stroke-linecap="round" stroke-linejoin="round"/>
<path d="M31.875 32H39.125" stroke="white" stroke-width="1.5" stroke-linecap="round" stroke-linejoin="round"/>
<path d="M0 47H69V53C69 61.8366 61.8366 69 53 69H16C7.16344 69 0 61.8366 0 53V47Z" fill="#0E96C1"/>
<path d="M12.5276 53.3C13.063 53.3 13.5323 53.4027 13.9356 53.608C14.3463 53.806 14.6873 54.0847 14.9586 54.444C15.23 54.8033 15.4316 55.2177 15.5636 55.687C15.703 56.149 15.7726 56.6367 15.7726 57.15C15.7726 57.854 15.6516 58.4993 15.4096 59.086C15.1676 59.6653 14.8083 60.131 14.3316 60.483C13.855 60.8277 13.2536 61 12.5276 61H9.77763C9.65296 61 9.54663 60.956 9.45863 60.868C9.37796 60.78 9.33763 60.6737 9.33763 60.549V53.74C9.33763 53.6153 9.37796 53.5127 9.45863 53.432C9.54663 53.344 9.65296 53.3 9.77763 53.3H12.5276ZM12.4176 60.142C12.9823 60.142 13.4406 60.0063 13.7926 59.735C14.152 59.4637 14.4123 59.1007 14.5736 58.646C14.7423 58.1913 14.8266 57.6927 14.8266 57.15C14.8266 56.754 14.779 56.3763 14.6836 56.017C14.5956 55.6503 14.4526 55.3277 14.2546 55.049C14.064 54.7703 13.8146 54.5503 13.5066 54.389C13.206 54.2277 12.843 54.147 12.4176 54.147H10.1626L10.2506 54.059V60.252L10.1846 60.142H12.4176ZM22.5661 58.14C22.5661 58.712 22.4377 59.2217 22.1811 59.669C21.9317 60.1163 21.5907 60.4683 21.1581 60.725C20.7327 60.9817 20.2524 61.11 19.7171 61.11C19.1817 61.11 18.6977 60.9817 18.2651 60.725C17.8324 60.4683 17.4877 60.1163 17.2311 59.669C16.9817 59.2217 16.8571 58.712 16.8571 58.14C16.8571 57.568 16.9817 57.0583 17.2311 56.611C17.4877 56.1637 17.8324 55.8117 18.2651 55.555C18.6977 55.2983 19.1817 55.17 19.7171 55.17C20.2524 55.17 20.7327 55.2983 21.1581 55.555C21.5907 55.8117 21.9317 56.1637 22.1811 56.611C22.4377 57.0583 22.5661 57.568 22.5661 58.14ZM21.6861 58.14C21.6861 57.7147 21.5981 57.3407 21.4221 57.018C21.2534 56.6953 21.0187 56.4423 20.7181 56.259C20.4247 56.0757 20.0911 55.984 19.7171 55.984C19.3431 55.984 19.0057 56.0757 18.7051 56.259C18.4117 56.4423 18.1771 56.6953 18.0011 57.018C17.8251 57.3407 17.7371 57.7147 17.7371 58.14C17.7371 58.558 17.8251 58.9283 18.0011 59.251C18.1771 59.5737 18.4117 59.8303 18.7051 60.021C19.0057 60.2043 19.3431 60.296 19.7171 60.296C20.0911 60.296 20.4247 60.2043 20.7181 60.021C21.0187 59.8303 21.2534 59.5737 21.4221 59.251C21.5981 58.9283 21.6861 58.558 21.6861 58.14ZM30.5997 55.214C30.717 55.214 30.816 55.2543 30.8967 55.335C30.9847 55.4157 31.0287 55.522 31.0287 55.654C31.0287 55.6833 31.025 55.7163 31.0177 55.753C31.0177 55.7823 31.0104 55.8117 30.9957 55.841L29.3017 60.714C29.265 60.8093 29.2027 60.8827 29.1147 60.934C29.034 60.9853 28.946 61.0073 28.8507 61C28.682 60.9927 28.5537 60.8973 28.4657 60.714L27.0797 57.238L27.2997 57.271L26.0457 60.714C25.965 60.8973 25.8367 60.9927 25.6607 61C25.5654 61.0073 25.4737 60.9853 25.3857 60.934C25.2977 60.8827 25.239 60.8093 25.2097 60.714L23.4827 55.841C23.4607 55.775 23.4497 55.7127 23.4497 55.654C23.4497 55.5367 23.49 55.434 23.5707 55.346C23.6514 55.258 23.7614 55.214 23.9007 55.214C23.9887 55.214 24.0694 55.236 24.1427 55.28C24.216 55.324 24.2674 55.3937 24.2967 55.489L25.7817 59.823L25.5507 59.812L26.8377 56.512C26.911 56.3287 27.0467 56.237 27.2447 56.237C27.3474 56.237 27.428 56.2627 27.4867 56.314C27.5527 56.358 27.6004 56.424 27.6297 56.512L28.9717 59.812L28.6967 59.834L30.1817 55.489C30.2477 55.3057 30.387 55.214 30.5997 55.214ZM35.0419 55.17C35.5405 55.17 35.9329 55.2727 36.2189 55.478C36.5049 55.6833 36.7065 55.9583 36.8239 56.303C36.9485 56.6477 37.0109 57.0327 37.0109 57.458V60.549C37.0109 60.6737 36.9669 60.78 36.8789 60.868C36.7982 60.956 36.6955 61 36.5709 61C36.4462 61 36.3399 60.956 36.2519 60.868C36.1712 60.78 36.1309 60.6737 36.1309 60.549V57.48C36.1309 57.2013 36.0869 56.952 35.9989 56.732C35.9182 56.5047 35.7789 56.325 35.5809 56.193C35.3902 56.0537 35.1262 55.984 34.7889 55.984C34.4809 55.984 34.1985 56.0537 33.9419 56.193C33.6852 56.325 33.4799 56.5047 33.3259 56.732C33.1719 56.952 33.0949 57.2013 33.0949 57.48V60.549C33.0949 60.6737 33.0509 60.78 32.9629 60.868C32.8822 60.956 32.7795 61 32.6549 61C32.5302 61 32.4239 60.956 32.3359 60.868C32.2552 60.78 32.2149 60.6737 32.2149 60.549V55.753C32.2149 55.6283 32.2552 55.5257 32.3359 55.445C32.4239 55.357 32.5302 55.313 32.6549 55.313C32.7869 55.313 32.8932 55.357 32.9739 55.445C33.0545 55.5257 33.0949 55.6283 33.0949 55.753V56.534L32.8749 56.776C32.9115 56.5853 32.9959 56.3947 33.1279 56.204C33.2599 56.006 33.4249 55.83 33.6229 55.676C33.8209 55.522 34.0409 55.401 34.2829 55.313C34.5249 55.2177 34.7779 55.17 35.0419 55.17ZM39.6067 60.549C39.6067 60.6737 39.5627 60.78 39.4747 60.868C39.3867 60.956 39.2804 61 39.1557 61C39.031 61 38.9284 60.956 38.8477 60.868C38.767 60.78 38.7267 60.6737 38.7267 60.549V53.3C38.7267 53.1753 38.767 53.0727 38.8477 52.992C38.9357 52.904 39.042 52.86 39.1667 52.86C39.2987 52.86 39.405 52.904 39.4857 52.992C39.5664 53.0727 39.6067 53.1753 39.6067 53.3V60.549ZM46.6071 58.14C46.6071 58.712 46.4788 59.2217 46.2221 59.669C45.9728 60.1163 45.6318 60.4683 45.1991 60.725C44.7738 60.9817 44.2934 61.11 43.7581 61.11C43.2228 61.11 42.7388 60.9817 42.3061 60.725C41.8734 60.4683 41.5288 60.1163 41.2721 59.669C41.0228 59.2217 40.8981 58.712 40.8981 58.14C40.8981 57.568 41.0228 57.0583 41.2721 56.611C41.5288 56.1637 41.8734 55.8117 42.3061 55.555C42.7388 55.2983 43.2228 55.17 43.7581 55.17C44.2934 55.17 44.7738 55.2983 45.1991 55.555C45.6318 55.8117 45.9728 56.1637 46.2221 56.611C46.4788 57.0583 46.6071 57.568 46.6071 58.14ZM45.7271 58.14C45.7271 57.7147 45.6391 57.3407 45.4631 57.018C45.2944 56.6953 45.0598 56.4423 44.7591 56.259C44.4658 56.0757 44.1321 55.984 43.7581 55.984C43.3841 55.984 43.0468 56.0757 42.7461 56.259C42.4528 56.4423 42.2181 56.6953 42.0421 57.018C41.8661 57.3407 41.7781 57.7147 41.7781 58.14C41.7781 58.558 41.8661 58.9283 42.0421 59.251C42.2181 59.5737 42.4528 59.8303 42.7461 60.021C43.0468 60.2043 43.3841 60.296 43.7581 60.296C44.1321 60.296 44.4658 60.2043 44.7591 60.021C45.0598 59.8303 45.2944 59.5737 45.4631 59.251C45.6391 58.9283 45.7271 58.558 45.7271 58.14ZM52.6167 55.258C52.7414 55.258 52.844 55.302 52.9247 55.39C53.0127 55.4707 53.0567 55.5733 53.0567 55.698V60.549C53.0567 60.6737 53.0127 60.78 52.9247 60.868C52.844 60.956 52.7414 61 52.6167 61C52.4847 61 52.3784 60.956 52.2977 60.868C52.217 60.78 52.1767 60.6737 52.1767 60.549V59.504L52.3857 59.482C52.3857 59.6433 52.3307 59.8193 52.2207 60.01C52.1107 60.2007 51.9604 60.3803 51.7697 60.549C51.579 60.7103 51.3517 60.846 51.0877 60.956C50.831 61.0587 50.5524 61.11 50.2517 61.11C49.753 61.11 49.3057 60.9817 48.9097 60.725C48.5137 60.461 48.1984 60.1053 47.9637 59.658C47.7364 59.2107 47.6227 58.701 47.6227 58.129C47.6227 57.5497 47.7364 57.04 47.9637 56.6C48.1984 56.1527 48.5137 55.8043 48.9097 55.555C49.3057 55.2983 49.7457 55.17 50.2297 55.17C50.545 55.17 50.8384 55.2213 51.1097 55.324C51.381 55.4267 51.6157 55.566 51.8137 55.742C52.019 55.918 52.1767 56.1123 52.2867 56.325C52.404 56.5377 52.4627 56.7503 52.4627 56.963L52.1767 56.897V55.698C52.1767 55.5733 52.217 55.4707 52.2977 55.39C52.3784 55.302 52.4847 55.258 52.6167 55.258ZM50.3507 60.296C50.7174 60.296 51.04 60.2007 51.3187 60.01C51.6047 59.8193 51.8247 59.5627 51.9787 59.24C52.14 58.91 52.2207 58.5397 52.2207 58.129C52.2207 57.7257 52.14 57.3627 51.9787 57.04C51.8247 56.71 51.6047 56.4533 51.3187 56.27C51.04 56.0793 50.7174 55.984 50.3507 55.984C49.9914 55.984 49.6687 56.0757 49.3827 56.259C49.104 56.4423 48.884 56.6953 48.7227 57.018C48.5614 57.3407 48.4807 57.711 48.4807 58.129C48.4807 58.5397 48.5577 58.91 48.7117 59.24C48.873 59.5627 49.093 59.8193 49.3717 60.01C49.6577 60.2007 49.984 60.296 50.3507 60.296ZM59.3735 52.86C59.4982 52.86 59.6009 52.904 59.6815 52.992C59.7695 53.0727 59.8135 53.1753 59.8135 53.3V60.549C59.8135 60.6737 59.7695 60.78 59.6815 60.868C59.6009 60.956 59.4982 61 59.3735 61C59.2415 61 59.1352 60.956 59.0545 60.868C58.9739 60.78 58.9335 60.6737 58.9335 60.549V59.504L59.1425 59.427C59.1425 59.603 59.0875 59.79 58.9775 59.988C58.8675 60.1787 58.7172 60.3583 58.5265 60.527C58.3359 60.6957 58.1085 60.835 57.8445 60.945C57.5879 61.055 57.3092 61.11 57.0085 61.11C56.5172 61.11 56.0699 60.9817 55.6665 60.725C55.2705 60.4683 54.9552 60.1163 54.7205 59.669C54.4932 59.2217 54.3795 58.712 54.3795 58.14C54.3795 57.5607 54.4932 57.0473 54.7205 56.6C54.9552 56.1527 55.2705 55.8043 55.6665 55.555C56.0625 55.2983 56.5025 55.17 56.9865 55.17C57.2945 55.17 57.5842 55.2213 57.8555 55.324C58.1269 55.4267 58.3615 55.566 58.5595 55.742C58.7649 55.918 58.9262 56.1123 59.0435 56.325C59.1609 56.5377 59.2195 56.7503 59.2195 56.963L58.9335 56.897V53.3C58.9335 53.1753 58.9739 53.0727 59.0545 52.992C59.1352 52.904 59.2415 52.86 59.3735 52.86ZM57.1075 60.296C57.4742 60.296 57.7969 60.2043 58.0755 60.021C58.3615 59.8303 58.5815 59.5737 58.7355 59.251C58.8969 58.921 58.9775 58.5507 58.9775 58.14C58.9775 57.722 58.8969 57.3517 58.7355 57.029C58.5815 56.7063 58.3615 56.4533 58.0755 56.27C57.7969 56.0793 57.4742 55.984 57.1075 55.984C56.7482 55.984 56.4255 56.0793 56.1395 56.27C55.8609 56.4533 55.6409 56.7063 55.4795 57.029C55.3182 57.3517 55.2375 57.722 55.2375 58.14C55.2375 58.5433 55.3182 58.91 55.4795 59.24C55.6409 59.5627 55.8609 59.8193 56.1395 60.01C56.4255 60.2007 56.7482 60.296 57.1075 60.296Z" fill="#F3F3F3"/>
<path d="M53 0H47L69 22V16C69 7.16344 61.8366 0 53 0Z" fill="#F3F3F3"/>
<path d="M63 21.8396H68.8396L47 0V5.83962C47 14.6762 54.1634 21.8396 63 21.8396Z" fill="#58D4FB"/>
</svg>
